<mxfile host="app.diagrams.net" modified="2022-05-29T17:38:05.472Z" agent="5.0 (Macintosh; Intel Mac OS X 10_15_7) AppleWebKit/537.36 (KHTML, like Gecko) Chrome/101.0.4951.54 Safari/537.36" etag="oEwE39xkZF-33EtRHd6I" version="18.1.3" type="github">
  <diagram id="QddGmPl4mbzWXLDCWOSN" name="Page-1">
    <mxGraphModel dx="946" dy="646" grid="1" gridSize="10" guides="1" tooltips="1" connect="1" arrows="1" fold="1" page="1" pageScale="1" pageWidth="850" pageHeight="1100" math="0" shadow="0">
      <root>
        <mxCell id="0" />
        <mxCell id="1" parent="0" />
        <mxCell id="SWkamjn1TmtxCkySo7Cz-4" value="" style="edgeStyle=orthogonalEdgeStyle;rounded=0;orthogonalLoop=1;jettySize=auto;html=1;" edge="1" parent="1" source="SWkamjn1TmtxCkySo7Cz-1" target="SWkamjn1TmtxCkySo7Cz-3">
          <mxGeometry relative="1" as="geometry" />
        </mxCell>
        <mxCell id="SWkamjn1TmtxCkySo7Cz-1" value="REMS Service&lt;br&gt;RT: participant Account Creation" style="rounded=0;whiteSpace=wrap;html=1;" vertex="1" parent="1">
          <mxGeometry x="320" y="60" width="120" height="70" as="geometry" />
        </mxCell>
        <mxCell id="SWkamjn1TmtxCkySo7Cz-6" value="" style="edgeStyle=orthogonalEdgeStyle;rounded=0;orthogonalLoop=1;jettySize=auto;html=1;" edge="1" parent="1" source="SWkamjn1TmtxCkySo7Cz-3" target="SWkamjn1TmtxCkySo7Cz-5">
          <mxGeometry relative="1" as="geometry" />
        </mxCell>
        <mxCell id="SWkamjn1TmtxCkySo7Cz-3" value="Button : Create Account&lt;br&gt;Object: Case&lt;br&gt;(Patient Enrollment)&lt;br&gt;" style="rounded=0;whiteSpace=wrap;html=1;" vertex="1" parent="1">
          <mxGeometry x="320" y="210" width="120" height="100" as="geometry" />
        </mxCell>
        <mxCell id="SWkamjn1TmtxCkySo7Cz-8" value="" style="edgeStyle=orthogonalEdgeStyle;rounded=0;orthogonalLoop=1;jettySize=auto;html=1;" edge="1" parent="1" source="SWkamjn1TmtxCkySo7Cz-5" target="SWkamjn1TmtxCkySo7Cz-7">
          <mxGeometry relative="1" as="geometry" />
        </mxCell>
        <mxCell id="SWkamjn1TmtxCkySo7Cz-5" value="Button : Add/Update Participant&lt;br&gt;Object: Account&lt;br&gt;" style="rounded=0;whiteSpace=wrap;html=1;" vertex="1" parent="1">
          <mxGeometry x="320" y="390" width="120" height="110" as="geometry" />
        </mxCell>
        <mxCell id="SWkamjn1TmtxCkySo7Cz-10" value="" style="edgeStyle=orthogonalEdgeStyle;rounded=0;orthogonalLoop=1;jettySize=auto;html=1;" edge="1" parent="1" source="SWkamjn1TmtxCkySo7Cz-7" target="SWkamjn1TmtxCkySo7Cz-9">
          <mxGeometry relative="1" as="geometry" />
        </mxCell>
        <mxCell id="SWkamjn1TmtxCkySo7Cz-7" value="Go back to REMS Services" style="rhombus;whiteSpace=wrap;html=1;rounded=0;" vertex="1" parent="1">
          <mxGeometry x="340" y="595" width="80" height="80" as="geometry" />
        </mxCell>
        <mxCell id="SWkamjn1TmtxCkySo7Cz-13" value="" style="edgeStyle=orthogonalEdgeStyle;rounded=0;orthogonalLoop=1;jettySize=auto;html=1;" edge="1" parent="1" source="SWkamjn1TmtxCkySo7Cz-9" target="SWkamjn1TmtxCkySo7Cz-12">
          <mxGeometry relative="1" as="geometry" />
        </mxCell>
        <mxCell id="SWkamjn1TmtxCkySo7Cz-9" value="&lt;span style=&quot;&quot;&gt;REMS Service&lt;/span&gt;&lt;br style=&quot;&quot;&gt;&lt;span style=&quot;&quot;&gt;RT: Change of Information&lt;/span&gt;" style="whiteSpace=wrap;html=1;rounded=0;" vertex="1" parent="1">
          <mxGeometry x="320" y="765" width="120" height="60" as="geometry" />
        </mxCell>
        <mxCell id="SWkamjn1TmtxCkySo7Cz-11" value="YES" style="text;html=1;align=center;verticalAlign=middle;resizable=0;points=[];autosize=1;strokeColor=none;fillColor=none;" vertex="1" parent="1">
          <mxGeometry x="320" y="710" width="40" height="20" as="geometry" />
        </mxCell>
        <mxCell id="SWkamjn1TmtxCkySo7Cz-12" value="Button : Change of Information" style="ellipse;whiteSpace=wrap;html=1;rounded=0;" vertex="1" parent="1">
          <mxGeometry x="320" y="905" width="120" height="60" as="geometry" />
        </mxCell>
      </root>
    </mxGraphModel>
  </diagram>
</mxfile>
